<svg width="184" height="100" viewBox="0 0 184 100" fill="none" xmlns="http://www.w3.org/2000/svg">
<path d="M25.8963 36.6373C27.4864 35.0476 29.0993 33.4351 30.7348 31.8C32.3704 30.1194 33.9605 28.3707 35.5052 26.5538C37.0499 24.737 38.481 22.852 39.7985 20.8989C41.1615 18.9003 42.3654 16.7882 43.4104 14.5626C43.6375 14.063 43.9556 13.6996 44.3644 13.4725C44.7733 13.2 45.2277 13.0637 45.7274 13.0637C46.4998 13.0637 47.1131 13.3362 47.5674 13.8813C48.0672 14.4263 48.317 15.0395 48.317 15.7208C48.317 16.0842 48.2489 16.4249 48.1126 16.7428C46.7042 19.6952 45.0914 22.3978 43.2741 24.8505C41.4568 27.3033 39.5486 29.6425 37.5496 31.8681C35.5506 34.0483 33.5289 36.1604 31.4844 38.2044C29.44 40.2937 27.4864 42.3831 25.6237 44.4725C25.442 47.6066 25.442 50.7406 25.6237 53.8747C25.8054 57.0542 25.8963 60.4153 25.8963 63.9582C25.8963 66.8652 25.8054 69.7721 25.6237 72.6791C25.442 75.586 25.1467 78.3567 24.7378 80.9912C24.3289 83.671 23.761 86.1692 23.0341 88.4857C22.3526 90.8021 21.4667 92.8007 20.3763 94.4813C19.2859 96.2073 18.0138 97.5472 16.56 98.5011C15.1062 99.5003 13.4025 100 11.4489 100C8.22321 100 5.74716 98.8871 4.02074 96.6615C2.29432 94.4359 1.43111 91.3245 1.43111 87.3274C1.43111 85.1472 1.65827 82.808 2.11259 80.3098C2.61235 77.8117 3.29383 75.2227 4.15704 72.5428C5.02025 69.9084 6.04247 67.2285 7.2237 64.5033C8.45037 61.778 9.7679 59.1208 11.1763 56.5318C12.5847 53.9428 14.084 51.4674 15.6741 49.1055C17.2642 46.789 18.877 44.6769 20.5126 42.7692C20.6035 40.589 20.6943 38.3179 20.7852 35.956C20.9215 33.6395 21.0578 31.482 21.1941 29.4835C20.0128 31.5729 18.5363 33.2534 16.7644 34.5252C15.038 35.797 13.1299 36.4329 11.04 36.4329C7.58716 36.4329 4.88395 35.2747 2.93037 32.9582C0.97679 30.6417 0 27.4622 0 23.4197C0 20.4674 0.272593 17.7875 0.817778 15.3802C1.4084 12.9274 2.02173 10.8381 2.65778 9.11205C3.33926 7.34062 3.95259 6.00069 4.49778 5.09226C5.04296 4.13842 5.31556 3.6842 5.31556 3.72962C5.81531 2.95746 6.51951 2.57138 7.42815 2.57138C8.20049 2.57138 8.81383 2.84391 9.26815 3.38896C9.7679 3.8886 10.0178 4.47908 10.0178 5.1604C10.0178 5.66003 9.88148 6.11424 9.60889 6.52303C9.65432 6.47761 9.42716 6.8637 8.92741 7.68128C8.47309 8.45344 7.95062 9.58897 7.36 11.0879C6.81481 12.5868 6.29235 14.3809 5.79259 16.4703C5.33827 18.5597 5.11111 20.8534 5.11111 23.3516C5.11111 25.8498 5.56543 27.8029 6.47407 29.211C7.38272 30.619 8.85926 31.323 10.9037 31.323C13.4933 31.323 15.8331 29.4154 17.923 25.6C20.0128 21.7392 21.7847 16.1523 23.2385 8.83952C23.3294 8.24905 23.602 7.77212 24.0563 7.40875C24.5106 6.99996 25.0558 6.79556 25.6919 6.79556C26.4188 6.79556 27.0321 7.04538 27.5319 7.54501C28.0316 8.04465 28.2815 8.65784 28.2815 9.38457C28.2815 9.52084 28.1906 10.3384 28.0089 11.8373C27.8272 13.2908 27.6 15.2439 27.3274 17.6967C27.1002 20.1494 26.8504 23.011 26.5778 26.2813C26.3052 29.5062 26.078 32.9582 25.8963 36.6373ZM20.4444 51.0813C18.4 54.0337 16.5146 57.145 14.7881 60.4153C13.1072 63.6857 11.6533 66.9333 10.4267 70.1582C9.2 73.3831 8.24593 76.4718 7.56444 79.4241C6.88296 82.3765 6.54222 85.0109 6.54222 87.3274C6.54222 89.6893 6.92839 91.5289 7.70074 92.8461C8.47309 94.2087 9.69975 94.8901 11.3807 94.8901C12.88 94.8901 14.1975 94.1406 15.3333 92.6417C16.5146 91.1882 17.4914 89.0989 18.2637 86.3736C19.0815 83.6483 19.6948 80.3326 20.1037 76.4263C20.5126 72.5655 20.717 68.2278 20.717 63.4131C20.717 61.46 20.6716 59.4842 20.5807 57.4857C20.5353 55.4871 20.4899 53.3523 20.4444 51.0813Z" fill="url(#paint0_linear)"/>
<path d="M74.8948 28.189C73.759 28.189 72.7595 28.0981 71.8963 27.9165C71.2148 29.2791 70.397 30.5509 69.443 31.7318C68.4889 32.8674 67.3758 33.8666 66.1037 34.7296C64.877 35.5926 63.4914 36.274 61.9467 36.7736C60.402 37.2732 58.721 37.523 56.9037 37.523C54.7684 37.523 52.8148 37.137 51.043 36.3648C49.2711 35.6381 47.7264 34.6161 46.4089 33.2989C45.0914 31.9362 44.0691 30.3238 43.3422 28.4615C42.6153 26.5538 42.2519 24.4644 42.2519 22.1934C42.2519 19.2864 42.7743 16.7655 43.8193 14.6307C44.8642 12.4505 46.0681 10.6564 47.4311 9.24831C48.7941 7.79483 50.157 6.72743 51.52 6.04611C52.883 5.31937 53.9052 4.956 54.5867 4.956C55.359 4.956 55.9269 5.1604 56.2904 5.56919C56.6993 5.97798 56.9037 6.52303 56.9037 7.20435C56.9037 7.97651 56.6538 8.56699 56.1541 8.97578C55.6997 9.33915 55.1091 9.70252 54.3822 10.0659C53.6553 10.4293 52.883 10.9516 52.0652 11.6329C51.2474 12.2688 50.4751 13.0864 49.7481 14.0857C49.0667 15.0849 48.4988 16.2659 48.0444 17.6285C47.5901 18.9912 47.363 20.5128 47.363 22.1934C47.363 23.6923 47.5901 25.1003 48.0444 26.4176C48.4988 27.6893 49.1575 28.8022 50.0207 29.756C50.8839 30.6644 51.9062 31.3912 53.0874 31.9362C54.2686 32.4359 55.5862 32.6857 57.04 32.6857C59.6296 32.6857 61.7649 32.0952 63.4459 30.9143C65.1723 29.6879 66.4899 28.1436 67.3985 26.2813C64.718 24.8732 62.5146 22.8747 60.7881 20.2857C59.0617 17.6967 58.1985 14.7897 58.1985 11.5648C58.1985 8.97578 58.8119 6.86369 60.0385 5.22853C61.3106 3.59336 62.9689 2.77578 65.0133 2.77578C66.24 2.77578 67.3985 3.07101 68.4889 3.66149C69.5793 4.25197 70.5333 5.18311 71.3511 6.4549C72.2143 7.7267 72.8958 9.36187 73.3956 11.3604C73.8953 13.3589 74.1452 15.7436 74.1452 18.5143C74.1452 19.9677 73.9635 21.4893 73.6 23.0791C73.8726 23.1245 74.1452 23.1472 74.4178 23.1472C74.6904 23.1472 74.9857 23.1472 75.3037 23.1472C76.8484 23.1472 78.2341 22.9655 79.4607 22.6022C80.6874 22.2388 81.8005 21.6937 82.8 20.967C83.7995 20.2403 84.6854 19.3091 85.4578 18.1736C86.2756 17.0381 87.0479 15.7208 87.7748 14.2219C87.9111 13.9494 88.2064 13.6996 88.6607 13.4725C89.1151 13.2 89.5694 13.0637 90.0237 13.0637C90.6143 13.0637 91.1595 13.3135 91.6593 13.8132C92.2045 14.2674 92.477 14.8806 92.477 15.6527C92.477 16.0161 92.3862 16.4249 92.2044 16.8791C92.0227 17.2879 91.841 17.674 91.6593 18.0373C90.8869 19.4 89.9783 20.7172 88.9333 21.989C87.9338 23.2154 86.7299 24.3055 85.3215 25.2593C83.9585 26.1677 82.4138 26.8945 80.6874 27.4395C78.961 27.9846 77.0301 28.2344 74.8948 28.189ZM63.2415 11.0197C63.2415 11.8827 63.3551 12.7912 63.5822 13.745C63.8094 14.6989 64.1501 15.6527 64.6044 16.6066C65.1042 17.515 65.6948 18.4007 66.3763 19.2637C67.1032 20.0813 67.9437 20.7853 68.8978 21.3758C69.0341 20.4219 69.1022 19.4908 69.1022 18.5824C69.1022 17.356 69.0114 16.1069 68.8296 14.8351C68.6479 13.5633 68.3753 12.4051 68.0118 11.3604C67.6938 10.2703 67.2849 9.40729 66.7852 8.77139C66.2854 8.09007 65.6948 7.74941 65.0133 7.74941C64.7407 7.74941 64.3773 7.9538 63.923 8.36259C63.4686 8.77139 63.2415 9.6571 63.2415 11.0197Z" fill="url(#paint1_linear)"/>
<path d="M102.767 29.5516C103.494 28.0527 104.335 26.4176 105.289 24.6461C106.243 22.8293 107.265 21.0124 108.356 19.1956C109.446 17.3333 110.582 15.4937 111.763 13.6769C112.99 11.86 114.262 10.134 115.579 8.49886C116.897 6.90912 118.214 5.77358 119.532 5.09226C120.895 4.36552 122.167 4.00215 123.348 4.00215C125.711 4.00215 127.46 4.86516 128.596 6.59117C129.731 8.31717 130.299 10.452 130.299 12.9956C130.299 13.586 130.254 14.3128 130.163 15.1758C130.118 15.9934 130.049 16.8791 129.959 17.8329C129.913 18.7868 129.845 19.7633 129.754 20.7626C129.709 21.7165 129.686 22.6249 129.686 23.4879C129.686 24.578 129.731 25.6227 129.822 26.622C129.959 27.6212 130.186 28.5069 130.504 29.2791C130.822 30.0058 131.276 30.5963 131.867 31.0505C132.457 31.4593 133.23 31.6637 134.184 31.6637C135.91 31.6637 137.591 31.0051 139.227 29.6879C140.862 28.3252 142.361 26.7355 143.724 24.9186C145.133 23.0564 146.337 21.1714 147.336 19.2637C148.381 17.356 149.154 15.8117 149.653 14.6307C149.88 14.1311 150.199 13.745 150.607 13.4725C151.062 13.2 151.539 13.0637 152.039 13.0637C152.811 13.0637 153.424 13.3589 153.879 13.9494C154.378 14.4945 154.628 15.0849 154.628 15.7208C154.628 16.0388 154.56 16.3567 154.424 16.6747C154.242 17.0381 153.879 17.7875 153.333 18.923C152.788 20.0586 152.061 21.3758 151.153 22.8747C150.289 24.3282 149.267 25.8952 148.086 27.5758C146.905 29.211 145.587 30.7099 144.133 32.0725C142.725 33.4351 141.18 34.5707 139.499 35.4791C137.864 36.3875 136.137 36.8417 134.32 36.8417C132.276 36.8417 130.617 36.4556 129.345 35.6835C128.073 34.8659 127.074 33.8212 126.347 32.5494C125.62 31.2322 125.12 29.8014 124.847 28.2571C124.62 26.6674 124.507 25.0776 124.507 23.4879C124.507 22.8066 124.529 22.0344 124.575 21.1714C124.666 20.3084 124.757 19.4 124.847 18.4461C124.984 17.4923 125.075 16.5384 125.12 15.5846C125.211 14.6307 125.256 13.7223 125.256 12.8593C125.256 11.4058 125.029 10.4293 124.575 9.92963C124.12 9.38458 123.712 9.11205 123.348 9.11205C122.621 9.11205 121.781 9.54355 120.827 10.4066C119.918 11.2241 118.941 12.3142 117.896 13.6769C116.897 15.0395 115.852 16.5838 114.761 18.3099C113.717 19.9904 112.717 21.671 111.763 23.3516C110.854 25.0322 109.991 26.6447 109.173 28.189C108.401 29.6879 107.788 30.937 107.333 31.9362C106.425 33.8439 105.516 35.1157 104.607 35.7516C103.699 36.4329 102.767 36.7736 101.813 36.7736C100.496 36.7736 99.4281 36.3875 98.6104 35.6153C97.838 34.7978 97.4519 33.6622 97.4519 32.2088C97.4519 31.8908 97.4973 31.2776 97.5881 30.3692C97.679 29.4154 97.7926 28.3025 97.9289 27.0307C98.0652 25.7135 98.2015 24.3055 98.3378 22.8066C98.4741 21.3077 98.6104 19.8315 98.7467 18.378C98.883 16.8791 98.9965 15.4937 99.0874 14.2219C99.1783 12.9501 99.2237 11.8827 99.2237 11.0197C99.2237 9.88421 99.1783 8.7941 99.0874 7.74941C98.9965 6.70472 98.8148 6.06882 98.5422 5.84171C98.1333 5.97798 97.4064 6.84098 96.3615 8.43073C95.3165 9.97505 93.9763 12.723 92.3407 16.6747C92.1136 17.1743 91.7728 17.5604 91.3185 17.8329C90.8642 18.1055 90.3872 18.2417 89.8874 18.2417C89.1151 18.2417 88.5017 17.9919 88.0474 17.4923C87.5931 16.9472 87.3659 16.334 87.3659 15.6527C87.3659 15.3348 87.4341 14.9941 87.5704 14.6307C89.6148 9.77066 91.523 6.20508 93.2948 3.93402C95.1121 1.61753 96.9067 0.459293 98.6785 0.459293C99.7235 0.459293 100.609 0.731822 101.336 1.27688C102.063 1.77651 102.631 2.45783 103.04 3.32083C103.494 4.18383 103.812 5.13768 103.994 6.18237C104.221 7.22706 104.335 8.29447 104.335 9.38457C104.335 10.2022 104.267 11.474 104.13 13.2C104.04 14.926 103.903 16.7882 103.721 18.7868C103.54 20.7399 103.358 22.693 103.176 24.6461C103.04 26.5992 102.904 28.2344 102.767 29.5516Z" fill="url(#paint2_linear)"/>
<path d="M149.858 22.1252C149.858 15.5846 150.267 9.06662 151.084 2.57138C151.175 1.93548 151.448 1.39043 151.902 0.936218C152.402 0.436584 153.038 0.186768 153.81 0.186768C154.492 0.186768 155.06 0.459294 155.514 1.00435C155.968 1.50398 156.196 2.09446 156.196 2.77578C156.196 3.0483 156.127 3.86589 155.991 5.22853C155.9 6.59116 155.764 8.22633 155.582 10.134C155.446 11.9963 155.31 13.9948 155.173 16.1296C155.082 18.219 155.037 20.1494 155.037 21.9208C155.037 24.3282 155.264 26.2813 155.719 27.7802C156.218 29.2337 156.832 30.3692 157.559 31.1868C158.331 32.0044 159.126 32.5494 159.944 32.8219C160.807 33.0945 161.625 33.2307 162.397 33.2307C163.669 33.2307 164.987 32.7765 166.35 31.8681C167.713 30.9597 169.098 29.6879 170.507 28.0527C171.96 26.4176 173.414 24.4644 174.868 22.1934C176.322 19.8769 177.753 17.3106 179.161 14.4945C179.389 14.0403 179.707 13.6996 180.116 13.4725C180.524 13.2 180.979 13.0637 181.479 13.0637C182.205 13.0637 182.796 13.3362 183.25 13.8813C183.75 14.4263 184 15.0168 184 15.6527C184 16.1069 183.909 16.493 183.727 16.811C183.182 17.8556 182.501 19.1274 181.683 20.6263C180.865 22.1252 179.934 23.6696 178.889 25.2593C177.844 26.8491 176.685 28.4388 175.413 30.0285C174.187 31.5729 172.869 32.9809 171.461 34.2527C170.052 35.4791 168.576 36.4784 167.031 37.2505C165.486 38.0227 163.919 38.4088 162.329 38.4088C160.284 38.4088 158.49 37.9773 156.945 37.1143C155.4 36.2512 154.083 35.093 152.993 33.6395C151.948 32.186 151.153 30.4828 150.607 28.5296C150.108 26.5311 149.858 24.3963 149.858 22.1252Z" fill="url(#paint3_linear)"/>
<defs>
<linearGradient id="paint0_linear" x1="-2.04444" y1="13.5459" x2="161.414" y2="12.3305" gradientUnits="userSpaceOnUse">
<stop stop-color="#DF5C6B"/>
<stop offset="1" stop-color="#9F9CC1"/>
</linearGradient>
<linearGradient id="paint1_linear" x1="-2.04444" y1="13.5459" x2="161.414" y2="12.3305" gradientUnits="userSpaceOnUse">
<stop stop-color="#DF5C6B"/>
<stop offset="1" stop-color="#9F9CC1"/>
</linearGradient>
<linearGradient id="paint2_linear" x1="-2.04444" y1="13.5459" x2="161.414" y2="12.3305" gradientUnits="userSpaceOnUse">
<stop stop-color="#DF5C6B"/>
<stop offset="1" stop-color="#9F9CC1"/>
</linearGradient>
<linearGradient id="paint3_linear" x1="-2.04444" y1="13.5459" x2="161.414" y2="12.3305" gradientUnits="userSpaceOnUse">
<stop stop-color="#DF5C6B"/>
<stop offset="1" stop-color="#9F9CC1"/>
</linearGradient>
</defs>
</svg>
